PathFileType	4	(X/Y/Z)	RBDS010\RBDS010runT35.trc
DataRate	CameraRate	NumFrames	NumMarkers	Units	OrigDataRate	OrigDataStartFrame	OrigNumFrames
150.000000	150.000000	4	32	mm	150.000000	0	4500
Frame#	Time	L.ASIS			L.Heel.Bottom			L.Heel.Lateral			L.Heel.Top			L.Iliac.Crest			L.MT5			L.PSIS			L.Shank.Bottom.Lateral			L.Shank.Bottom.Medial			L.Shank.Top.Lateral			L.Shank.Top.Medial			L.Thigh.Bottom.Lateral			L.Thigh.Bottom.Medial			L.Thigh.Top.Lateral			L.Thigh.Top.Medial			R.ASIS			R.ASY			R.Heel.Bottom			R.Heel.Lateral			R.Heel.Top			R.Iliac.Crest			R.MT1			R.MT5			R.PSIS			R.Shank.Bottom.Lateral			R.Shank.Bottom.Medial			R.Shank.Top.Lateral			R.Shank.Top.Medial			R.Thigh.Bottom.Lateral			R.Thigh.Bottom.Medial			R.Thigh.Top.Lateral			R.Thigh.Top.Medial			
		X1	Y1	Z1	X2	Y2	Z2	X3	Y3	Z3	X4	Y4	Z4	X5	Y5	Z5	X6	Y6	Z6	X7	Y7	Z7	X8	Y8	Z8	X9	Y9	Z9	X10	Y10	Z10	X11	Y11	Z11	X12	Y12	Z12	X13	Y13	Z13	X14	Y14	Z14	X15	Y15	Z15	X16	Y16	Z16	X17	Y17	Z17	X18	Y18	Z18	X19	Y19	Z19	X20	Y20	Z20	X21	Y21	Z21	X22	Y22	Z22	X23	Y23	Z23	X24	Y24	Z24	X25	Y25	Z25	X26	Y26	Z26	X27	Y27	Z27	X28	Y28	Z28	X29	Y29	Z29	X30	Y30	Z30	X31	Y31	Z31	X32	Y32	Z32	

1	0	2333.944370004758	957.8235365820909	869.0349738481198	2043.410722680321	241.8013495058973	891.2329760386422	2078.764826796757	242.9818840918738	848.3073200431845	2084.418506954651	271.1747717362283	901.0126362362178	2287.708737749935	1048.220065802039	832.3999584732411	2194.777608049834	135.128632331958	812.0101608747086	2170.614363932293	1022.861000892824	933.3378061237394	2180.846338452181	300.7540381264723	844.1637094313515	2156.006482209514	323.2449892308858	886.58174130626	2228.712790606097	364.4807919314586	836.8432292769861	2203.315513168176	388.7100111278178	877.599741237883	2386.359388272725	598.2283948442846	827.0819863100664	2338.448646366356	569.7000028615151	873.1612842453945	2317.272735720142	682.7146534701141	809.5340006981836	2272.439708912343	657.6026051652362	854.3588049605114	2326.668356867952	943.6552052750018	1096.820818854309	1979.506451902148	97.76588959187701	1000.586013255464	1800.242322924179	139.3411437382892	966.7549133698093	1825.890589097606	138.3469428176647	1015.518008207412	1831.885277572152	175.5821012359113	974.8690371139747	2276.326715581476	1034.204293038858	1132.273737598902	1987.139309958787	46.83849320462961	942.6623448196714	1952.431949738587	46.86572545706483	1052.804438384139	2171.911644200853	1022.57185239099	1032.631475622471	1928.948094477523	232.1691297016204	1042.845453814437	1896.182369046417	258.8513094718608	1012.961079154787	1964.465010084704	305.6786938146523	1065.946529342982	1929.556935332573	329.733158610947	1032.334477238524	2134.592265297666	594.3323490812077	1114.857365112976	2076.600391695366	610.7546110024729	1072.495040010667	2148.888305369585	701.3441096036514	1132.03614105612	2094.796697661185	718.2388345467688	1092.979230797268	
2	0.006666666666666667	2334.394132147425	963.3263147796275	867.6273235157212	2067.236229653409	222.7340018299241	891.2368308546265	2102.565300214463	226.1107494486834	848.609684483145	2105.584756550979	255.1051767885534	900.9096232542304	2287.930395529987	1055.014687077	832.688603431582	2225.875898486814	127.1397337633493	815.6462432292271	2172.783359921821	1028.322984393159	934.9162351896692	2199.942105976605	291.4302985232915	845.2055903325021	2173.488647600841	312.2392403210127	887.2717333642679	2242.995194584235	358.0389993153047	837.4870205338219	2216.260936008372	380.3797858850848	878.2832460276004	2388.832346642981	604.3935376246814	828.4123776446058	2339.729334024953	574.8357795777121	872.4463411658189	2319.602187276321	688.8252015270522	810.8501538453451	2274.006423154581	662.8044825803215	854.2119396325375	2329.692930475074	946.2573617364392	1094.840368714463	1964.296000752117	100.6314388195068	1003.263046798478	1789.152170723248	154.0639483644891	967.9438232351397	1814.008870081243	150.8212404219671	1016.899425480362	1822.788146674115	187.8960161943972	977.0853838430586	2282.273620950732	1037.925930802817	1131.616545755471	1969.543697331293	50.01209141565759	944.3889018289547	1932.980387492413	50.55440714174414	1053.694493298904	2175.128725794507	1027.05461187874	1034.333624294351	1917.798132578667	240.4465697900426	1045.150127049013	1885.28899943476	266.3719035007446	1014.414095075951	1952.877510611747	314.5840772126053	1067.225795960331	1918.089531399969	337.842904455534	1032.96447923001	2126.19200632156	602.7751191630672	1114.828199429495	2068.735250087058	621.2371484760442	1072.680621584083	2144.494539323483	708.9648593750798	1132.026108352124	2091.05261260723	727.6815708828819	1092.998915036687	
3	0.01333333333333333	2334.814370618479	968.6204723786384	866.2878184077975	2091.191228071416	203.9196316657869	891.5294650893189	2126.459123165149	209.3956033860662	849.1540926419925	2126.874761739083	239.20902315439	901.0037378627618	2288.162138337268	1061.56375507939	832.9559716921976	2256.824940646773	119.3052006560345	819.4051398259032	2174.892051273034	1033.624674331337	936.4294553875195	2219.001799638001	282.1697966293434	846.3277124536176	2190.999605994202	301.2991601097001	888.0662642267962	2257.224248328378	351.5463272150358	838.1514277280302	2229.198439249319	372.0147566090767	878.9923240242292	2391.084116493158	610.2458235577975	829.6495741937814	2340.83433302454	579.7005136449659	871.7205921941229	2321.739523746264	694.6513604163193	812.110868480147	2275.404970442191	667.7581115174139	854.0599931839517	2332.615889482556	948.843306261873	1092.933553228905	1949.054074686718	103.8119603351135	1005.845798434341	1778.115981554938	168.8897689910573	969.2355053654393	1802.187127406738	163.4235132985554	1018.357151767954	1813.693801384684	200.3147955443141	979.3672189831514	2288.133284647719	1041.564873557298	1130.958195174018	1951.918999300605	53.54462431091939	946.0314715729653	1913.611319771446	54.57975647181922	1054.542012483843	2178.256639940151	1031.464033506124	1035.968246927786	1906.7761251851	248.7836844359671	1047.454362756255	1874.524228810239	274.0305165238757	1015.924772688912	1941.559526058655	323.4576493084527	1068.526494477894	1906.89294229322	346.0076778907112	1033.672711425327	2118.179929586902	610.9975811666178	1114.811734458953	2061.237549919638	631.4216151171967	1072.864895263664	2140.322052148137	716.3908109516213	1132.030930520844	2087.511936528339	736.8571180783611	1093.026336233461	
4	0.02	2335.184934492145	973.5248202203512	865.0864603477528	2115.462021360002	185.6179325301248	892.3900684717511	2150.593834755035	193.0081401980246	850.1743474255122	2148.457916537767	223.6713919667846	901.4863515586428	2288.417158016357	1067.644376958134	833.1826513759845	2287.543320482231	111.8113297422971	823.3927716589704	2176.883706647778	1038.623735068839	937.8107376277929	2238.019376200906	273.0593693433821	847.6175648046984	2208.603360173542	290.5120858943878	889.0820989449321	2271.364429229928	344.9761353255326	838.8779115996847	2242.144006575388	363.6007508584034	879.7800972485203	2392.884357815885	615.4958039808419	830.7058686621114	2341.585948535805	584.056452016745	870.9904978871721	2323.485660803397	699.9321124887127	813.2619071516417	2276.466767822489	672.2465679098451	853.9092828344782	2335.345681908375	951.4117204377462	1091.177142961602	1933.71779539792	107.6007546999963	1008.232325619433	1767.128312525196	183.9198727097624	970.7343060731838	1790.434191613645	176.2713183276252	1019.966933489142	1804.55433330875	212.9431429310103	981.7740394150239	2293.783667704726	1045.068087428048	1130.298383477685	1934.194023713672	57.77607357547365	947.4982348470348	1894.367681137556	59.2459796737668	1055.299355807777	2181.208241032274	1035.738882169903	1037.464747397917	1895.962857706354	257.2433749214192	1049.75288833397	1863.970100023137	281.9665017052667	1017.54409738472	1930.727731318485	332.2778300884051	1069.861348407738	1896.18412758419	354.2906591260648	1034.529734512759	2110.913036530907	618.8015455366722	1114.814707906237	2054.439831998341	641.0408793109042	1073.052088542329	2136.579367650865	723.4483808690575	1132.063131404921	2084.361363217884	745.5273355146318	1093.076185128165	
